<mxfile host="app.diagrams.net" agent="Mozilla/5.0 (Macintosh; Intel Mac OS X 10_15_7) AppleWebKit/605.1.15 (KHTML, like Gecko) Version/18.1 Safari/605.1.15" version="24.7.17">
  <diagram id="C5RBs43oDa-KdzZeNtuy" name="Page-1">
    <mxGraphModel dx="1528" dy="989" grid="1" gridSize="10" guides="1" tooltips="1" connect="1" arrows="1" fold="1" page="1" pageScale="1" pageWidth="827" pageHeight="1169" math="0" shadow="0">
      <root>
        <mxCell id="WIyWlLk6GJQsqaUBKTNV-0" />
        <mxCell id="WIyWlLk6GJQsqaUBKTNV-1" parent="WIyWlLk6GJQsqaUBKTNV-0" />
        <mxCell id="WIyWlLk6GJQsqaUBKTNV-2" value="" style="rounded=0;html=1;jettySize=auto;orthogonalLoop=1;fontSize=11;endArrow=block;endFill=0;endSize=8;strokeWidth=1;shadow=0;labelBackgroundColor=none;edgeStyle=orthogonalEdgeStyle;fontFamily=STIX;entryX=0.5;entryY=0;entryDx=0;entryDy=0;" parent="WIyWlLk6GJQsqaUBKTNV-1" source="WIyWlLk6GJQsqaUBKTNV-3" target="5LAxU9HoS0U59rmS7WPM-4" edge="1">
          <mxGeometry relative="1" as="geometry" />
        </mxCell>
        <mxCell id="WIyWlLk6GJQsqaUBKTNV-3" value="Obtain List of NP for each Observation Point" style="rounded=1;whiteSpace=wrap;html=1;fontSize=12;glass=0;strokeWidth=1;shadow=0;fontFamily=STIX;" parent="WIyWlLk6GJQsqaUBKTNV-1" vertex="1">
          <mxGeometry x="80" y="120" width="120" height="40" as="geometry" />
        </mxCell>
        <mxCell id="5LAxU9HoS0U59rmS7WPM-3" style="edgeStyle=orthogonalEdgeStyle;rounded=0;orthogonalLoop=1;jettySize=auto;html=1;exitX=1;exitY=0.5;exitDx=0;exitDy=0;entryX=1;entryY=0.5;entryDx=0;entryDy=0;fontFamily=STIX;endSize=8;endArrow=block;endFill=0;" edge="1" parent="WIyWlLk6GJQsqaUBKTNV-1" source="WIyWlLk6GJQsqaUBKTNV-6" target="5LAxU9HoS0U59rmS7WPM-4">
          <mxGeometry relative="1" as="geometry">
            <mxPoint x="320" y="240" as="targetPoint" />
            <Array as="points">
              <mxPoint x="240" y="320" />
              <mxPoint x="240" y="220" />
            </Array>
          </mxGeometry>
        </mxCell>
        <mxCell id="5LAxU9HoS0U59rmS7WPM-5" value="No" style="edgeLabel;html=1;align=center;verticalAlign=middle;resizable=0;points=[];fontFamily=STIX;" vertex="1" connectable="0" parent="5LAxU9HoS0U59rmS7WPM-3">
          <mxGeometry x="0.0571" relative="1" as="geometry">
            <mxPoint x="10" as="offset" />
          </mxGeometry>
        </mxCell>
        <mxCell id="5LAxU9HoS0U59rmS7WPM-8" style="edgeStyle=orthogonalEdgeStyle;rounded=0;orthogonalLoop=1;jettySize=auto;html=1;exitX=0.5;exitY=1;exitDx=0;exitDy=0;entryX=0.5;entryY=0;entryDx=0;entryDy=0;fontFamily=STIX;endArrow=block;endFill=0;endSize=8;" edge="1" parent="WIyWlLk6GJQsqaUBKTNV-1" source="WIyWlLk6GJQsqaUBKTNV-6" target="5LAxU9HoS0U59rmS7WPM-7">
          <mxGeometry relative="1" as="geometry" />
        </mxCell>
        <mxCell id="5LAxU9HoS0U59rmS7WPM-12" value="Yes" style="edgeLabel;html=1;align=center;verticalAlign=middle;resizable=0;points=[];fontFamily=STIX;" vertex="1" connectable="0" parent="5LAxU9HoS0U59rmS7WPM-8">
          <mxGeometry x="0.0429" y="2" relative="1" as="geometry">
            <mxPoint x="-22" y="-1" as="offset" />
          </mxGeometry>
        </mxCell>
        <mxCell id="WIyWlLk6GJQsqaUBKTNV-6" value="Sig. inc. in&lt;div&gt;Intensity in Past 10 seconds?&lt;/div&gt;" style="rhombus;whiteSpace=wrap;html=1;shadow=0;fontFamily=STIX;fontSize=12;align=center;strokeWidth=1;spacing=6;spacingTop=-4;" parent="WIyWlLk6GJQsqaUBKTNV-1" vertex="1">
          <mxGeometry x="80" y="280" width="120" height="80" as="geometry" />
        </mxCell>
        <mxCell id="5LAxU9HoS0U59rmS7WPM-2" style="edgeStyle=orthogonalEdgeStyle;rounded=0;orthogonalLoop=1;jettySize=auto;html=1;exitX=0.5;exitY=1;exitDx=0;exitDy=0;entryX=0.5;entryY=0;entryDx=0;entryDy=0;endArrow=block;endFill=0;endSize=8;fontFamily=STIX;" edge="1" parent="WIyWlLk6GJQsqaUBKTNV-1" source="5LAxU9HoS0U59rmS7WPM-1" target="WIyWlLk6GJQsqaUBKTNV-3">
          <mxGeometry relative="1" as="geometry" />
        </mxCell>
        <mxCell id="5LAxU9HoS0U59rmS7WPM-1" value="Start" style="ellipse;whiteSpace=wrap;html=1;fontFamily=STIX;" vertex="1" parent="WIyWlLk6GJQsqaUBKTNV-1">
          <mxGeometry x="80" y="40" width="120" height="40" as="geometry" />
        </mxCell>
        <mxCell id="5LAxU9HoS0U59rmS7WPM-6" style="edgeStyle=orthogonalEdgeStyle;rounded=0;orthogonalLoop=1;jettySize=auto;html=1;exitX=0.5;exitY=1;exitDx=0;exitDy=0;entryX=0.5;entryY=0;entryDx=0;entryDy=0;endArrow=block;endFill=0;endSize=8;fontFamily=STIX;" edge="1" parent="WIyWlLk6GJQsqaUBKTNV-1" source="5LAxU9HoS0U59rmS7WPM-4" target="WIyWlLk6GJQsqaUBKTNV-6">
          <mxGeometry relative="1" as="geometry" />
        </mxCell>
        <mxCell id="5LAxU9HoS0U59rmS7WPM-4" value="Record Intensity of&lt;div&gt;Past 10 seconds&lt;/div&gt;" style="rounded=1;whiteSpace=wrap;html=1;fontSize=12;glass=0;strokeWidth=1;shadow=0;fontFamily=STIX;" vertex="1" parent="WIyWlLk6GJQsqaUBKTNV-1">
          <mxGeometry x="80" y="200" width="120" height="40" as="geometry" />
        </mxCell>
        <mxCell id="5LAxU9HoS0U59rmS7WPM-9" style="edgeStyle=orthogonalEdgeStyle;rounded=0;orthogonalLoop=1;jettySize=auto;html=1;exitX=1;exitY=0.5;exitDx=0;exitDy=0;entryX=0.5;entryY=0;entryDx=0;entryDy=0;fontFamily=STIX;endArrow=block;endFill=0;endSize=8;" edge="1" parent="WIyWlLk6GJQsqaUBKTNV-1" source="5LAxU9HoS0U59rmS7WPM-7" target="5LAxU9HoS0U59rmS7WPM-24">
          <mxGeometry relative="1" as="geometry">
            <mxPoint x="290" y="410" as="targetPoint" />
          </mxGeometry>
        </mxCell>
        <mxCell id="5LAxU9HoS0U59rmS7WPM-14" value="No" style="edgeLabel;html=1;align=center;verticalAlign=middle;resizable=0;points=[];fontFamily=STIX;" vertex="1" connectable="0" parent="5LAxU9HoS0U59rmS7WPM-9">
          <mxGeometry x="-0.1081" y="2" relative="1" as="geometry">
            <mxPoint x="17" y="-12" as="offset" />
          </mxGeometry>
        </mxCell>
        <mxCell id="5LAxU9HoS0U59rmS7WPM-10" style="edgeStyle=orthogonalEdgeStyle;rounded=0;orthogonalLoop=1;jettySize=auto;html=1;exitX=0.5;exitY=1;exitDx=0;exitDy=0;entryX=0.5;entryY=0;entryDx=0;entryDy=0;fontFamily=STIX;endArrow=block;endFill=0;endSize=8;" edge="1" parent="WIyWlLk6GJQsqaUBKTNV-1" source="5LAxU9HoS0U59rmS7WPM-7" target="5LAxU9HoS0U59rmS7WPM-11">
          <mxGeometry relative="1" as="geometry">
            <mxPoint x="139.8571428571429" y="530" as="targetPoint" />
          </mxGeometry>
        </mxCell>
        <mxCell id="5LAxU9HoS0U59rmS7WPM-13" value="Yes" style="edgeLabel;html=1;align=center;verticalAlign=middle;resizable=0;points=[];fontFamily=STIX;" vertex="1" connectable="0" parent="5LAxU9HoS0U59rmS7WPM-10">
          <mxGeometry x="-0.0743" y="-1" relative="1" as="geometry">
            <mxPoint x="-19" as="offset" />
          </mxGeometry>
        </mxCell>
        <mxCell id="5LAxU9HoS0U59rmS7WPM-7" value="Inc. in Intensity&lt;div&gt;for NPs?&lt;/div&gt;" style="rhombus;whiteSpace=wrap;html=1;shadow=0;fontFamily=STIX;fontSize=12;align=center;strokeWidth=1;spacing=6;spacingTop=-4;" vertex="1" parent="WIyWlLk6GJQsqaUBKTNV-1">
          <mxGeometry x="80" y="400" width="120" height="80" as="geometry" />
        </mxCell>
        <mxCell id="5LAxU9HoS0U59rmS7WPM-19" style="edgeStyle=orthogonalEdgeStyle;rounded=0;orthogonalLoop=1;jettySize=auto;html=1;exitX=0.5;exitY=1;exitDx=0;exitDy=0;entryX=0.5;entryY=0;entryDx=0;entryDy=0;fontFamily=STIX;endArrow=block;endFill=0;endSize=8;" edge="1" parent="WIyWlLk6GJQsqaUBKTNV-1" source="5LAxU9HoS0U59rmS7WPM-11" target="5LAxU9HoS0U59rmS7WPM-16">
          <mxGeometry relative="1" as="geometry" />
        </mxCell>
        <mxCell id="5LAxU9HoS0U59rmS7WPM-11" value="Event Created&lt;div&gt;(Points, NPs)&lt;/div&gt;" style="rounded=1;whiteSpace=wrap;html=1;fontSize=12;glass=0;strokeWidth=1;shadow=0;fontFamily=STIX;" vertex="1" parent="WIyWlLk6GJQsqaUBKTNV-1">
          <mxGeometry x="80" y="520" width="120" height="40" as="geometry" />
        </mxCell>
        <mxCell id="5LAxU9HoS0U59rmS7WPM-21" style="edgeStyle=orthogonalEdgeStyle;rounded=0;orthogonalLoop=1;jettySize=auto;html=1;exitX=0.5;exitY=1;exitDx=0;exitDy=0;entryX=0.5;entryY=0;entryDx=0;entryDy=0;fontFamily=STIX;endArrow=block;endFill=0;endSize=8;" edge="1" parent="WIyWlLk6GJQsqaUBKTNV-1" source="5LAxU9HoS0U59rmS7WPM-15" target="5LAxU9HoS0U59rmS7WPM-18">
          <mxGeometry relative="1" as="geometry" />
        </mxCell>
        <mxCell id="5LAxU9HoS0U59rmS7WPM-15" value="Add NP to list of Points" style="rounded=1;whiteSpace=wrap;html=1;fontSize=12;glass=0;strokeWidth=1;shadow=0;fontFamily=STIX;" vertex="1" parent="WIyWlLk6GJQsqaUBKTNV-1">
          <mxGeometry x="80" y="720" width="120" height="40" as="geometry" />
        </mxCell>
        <mxCell id="5LAxU9HoS0U59rmS7WPM-17" style="edgeStyle=orthogonalEdgeStyle;rounded=0;orthogonalLoop=1;jettySize=auto;html=1;exitX=1;exitY=0.5;exitDx=0;exitDy=0;entryX=0.5;entryY=0;entryDx=0;entryDy=0;fontFamily=STIX;endArrow=block;endFill=0;endSize=8;" edge="1" parent="WIyWlLk6GJQsqaUBKTNV-1" source="5LAxU9HoS0U59rmS7WPM-16" target="5LAxU9HoS0U59rmS7WPM-23">
          <mxGeometry relative="1" as="geometry">
            <mxPoint x="280" y="560" as="targetPoint" />
          </mxGeometry>
        </mxCell>
        <mxCell id="5LAxU9HoS0U59rmS7WPM-26" value="No" style="edgeLabel;html=1;align=center;verticalAlign=middle;resizable=0;points=[];fontFamily=STIX;" vertex="1" connectable="0" parent="5LAxU9HoS0U59rmS7WPM-17">
          <mxGeometry x="-0.4556" y="-1" relative="1" as="geometry">
            <mxPoint y="-11" as="offset" />
          </mxGeometry>
        </mxCell>
        <mxCell id="5LAxU9HoS0U59rmS7WPM-20" style="edgeStyle=orthogonalEdgeStyle;rounded=0;orthogonalLoop=1;jettySize=auto;html=1;exitX=0.5;exitY=1;exitDx=0;exitDy=0;entryX=0.5;entryY=0;entryDx=0;entryDy=0;fontFamily=STIX;endArrow=block;endFill=0;endSize=8;" edge="1" parent="WIyWlLk6GJQsqaUBKTNV-1" source="5LAxU9HoS0U59rmS7WPM-16" target="5LAxU9HoS0U59rmS7WPM-15">
          <mxGeometry relative="1" as="geometry" />
        </mxCell>
        <mxCell id="5LAxU9HoS0U59rmS7WPM-25" value="Yes" style="edgeLabel;html=1;align=center;verticalAlign=middle;resizable=0;points=[];fontFamily=STIX;" vertex="1" connectable="0" parent="5LAxU9HoS0U59rmS7WPM-20">
          <mxGeometry x="-0.1" y="-1" relative="1" as="geometry">
            <mxPoint x="-19" as="offset" />
          </mxGeometry>
        </mxCell>
        <mxCell id="5LAxU9HoS0U59rmS7WPM-16" value="Sig. inc. in&lt;div&gt;Intensity of NP in&amp;nbsp;&lt;/div&gt;&lt;div&gt;30 seconds?&lt;/div&gt;" style="rhombus;whiteSpace=wrap;html=1;shadow=0;fontFamily=STIX;fontSize=12;align=center;strokeWidth=1;spacing=6;spacingTop=-4;" vertex="1" parent="WIyWlLk6GJQsqaUBKTNV-1">
          <mxGeometry x="80" y="600" width="120" height="80" as="geometry" />
        </mxCell>
        <mxCell id="5LAxU9HoS0U59rmS7WPM-22" style="edgeStyle=orthogonalEdgeStyle;rounded=0;orthogonalLoop=1;jettySize=auto;html=1;exitX=0.5;exitY=1;exitDx=0;exitDy=0;entryX=0;entryY=0.5;entryDx=0;entryDy=0;fontFamily=STIX;endArrow=block;endFill=0;endSize=8;" edge="1" parent="WIyWlLk6GJQsqaUBKTNV-1" source="5LAxU9HoS0U59rmS7WPM-18" target="5LAxU9HoS0U59rmS7WPM-16">
          <mxGeometry relative="1" as="geometry">
            <Array as="points">
              <mxPoint x="140" y="880" />
              <mxPoint x="40" y="880" />
              <mxPoint x="40" y="640" />
            </Array>
          </mxGeometry>
        </mxCell>
        <mxCell id="5LAxU9HoS0U59rmS7WPM-18" value="Add NP of NP&lt;div&gt;to list of NPs&lt;/div&gt;" style="rounded=1;whiteSpace=wrap;html=1;fontSize=12;glass=0;strokeWidth=1;shadow=0;fontFamily=STIX;" vertex="1" parent="WIyWlLk6GJQsqaUBKTNV-1">
          <mxGeometry x="80" y="800" width="120" height="40" as="geometry" />
        </mxCell>
        <mxCell id="5LAxU9HoS0U59rmS7WPM-27" style="edgeStyle=orthogonalEdgeStyle;rounded=0;orthogonalLoop=1;jettySize=auto;html=1;exitX=0.5;exitY=1;exitDx=0;exitDy=0;entryX=1;entryY=0.5;entryDx=0;entryDy=0;fontFamily=STIX;endArrow=block;endFill=0;endSize=8;" edge="1" parent="WIyWlLk6GJQsqaUBKTNV-1" source="5LAxU9HoS0U59rmS7WPM-23" target="5LAxU9HoS0U59rmS7WPM-4">
          <mxGeometry relative="1" as="geometry">
            <Array as="points">
              <mxPoint x="300" y="800" />
              <mxPoint x="400" y="800" />
              <mxPoint x="400" y="220" />
            </Array>
          </mxGeometry>
        </mxCell>
        <mxCell id="5LAxU9HoS0U59rmS7WPM-23" value="Event Ended" style="rounded=1;whiteSpace=wrap;html=1;fontSize=12;glass=0;strokeWidth=1;shadow=0;fontFamily=STIX;" vertex="1" parent="WIyWlLk6GJQsqaUBKTNV-1">
          <mxGeometry x="240" y="720" width="120" height="40" as="geometry" />
        </mxCell>
        <mxCell id="5LAxU9HoS0U59rmS7WPM-28" style="edgeStyle=orthogonalEdgeStyle;rounded=0;orthogonalLoop=1;jettySize=auto;html=1;exitX=0.5;exitY=1;exitDx=0;exitDy=0;entryX=1;entryY=0.5;entryDx=0;entryDy=0;fontFamily=STIX;endArrow=block;endFill=0;endSize=8;" edge="1" parent="WIyWlLk6GJQsqaUBKTNV-1" source="5LAxU9HoS0U59rmS7WPM-24" target="5LAxU9HoS0U59rmS7WPM-4">
          <mxGeometry relative="1" as="geometry">
            <Array as="points">
              <mxPoint x="300" y="600" />
              <mxPoint x="400" y="600" />
              <mxPoint x="400" y="220" />
            </Array>
          </mxGeometry>
        </mxCell>
        <mxCell id="5LAxU9HoS0U59rmS7WPM-24" value="Anomaly" style="rounded=1;whiteSpace=wrap;html=1;fontSize=12;glass=0;strokeWidth=1;shadow=0;fontFamily=STIX;" vertex="1" parent="WIyWlLk6GJQsqaUBKTNV-1">
          <mxGeometry x="240" y="520" width="120" height="40" as="geometry" />
        </mxCell>
        <mxCell id="5LAxU9HoS0U59rmS7WPM-31" value="" style="ellipse;whiteSpace=wrap;html=1;aspect=fixed;fillColor=#3399FF;" vertex="1" parent="WIyWlLk6GJQsqaUBKTNV-1">
          <mxGeometry x="475" y="130" width="10" height="10" as="geometry" />
        </mxCell>
        <mxCell id="5LAxU9HoS0U59rmS7WPM-32" value="" style="ellipse;whiteSpace=wrap;html=1;aspect=fixed;fillColor=#3399FF;" vertex="1" parent="WIyWlLk6GJQsqaUBKTNV-1">
          <mxGeometry x="525" y="145" width="10" height="10" as="geometry" />
        </mxCell>
        <mxCell id="5LAxU9HoS0U59rmS7WPM-33" value="" style="ellipse;whiteSpace=wrap;html=1;aspect=fixed;fillColor=#3399FF;" vertex="1" parent="WIyWlLk6GJQsqaUBKTNV-1">
          <mxGeometry x="560" y="170" width="10" height="10" as="geometry" />
        </mxCell>
        <mxCell id="5LAxU9HoS0U59rmS7WPM-34" value="" style="ellipse;whiteSpace=wrap;html=1;aspect=fixed;fillColor=#3399FF;" vertex="1" parent="WIyWlLk6GJQsqaUBKTNV-1">
          <mxGeometry x="515" y="190" width="10" height="10" as="geometry" />
        </mxCell>
        <mxCell id="5LAxU9HoS0U59rmS7WPM-35" value="" style="ellipse;whiteSpace=wrap;html=1;aspect=fixed;fillColor=#3399FF;" vertex="1" parent="WIyWlLk6GJQsqaUBKTNV-1">
          <mxGeometry x="450" y="90" width="10" height="10" as="geometry" />
        </mxCell>
        <mxCell id="5LAxU9HoS0U59rmS7WPM-36" value="" style="ellipse;whiteSpace=wrap;html=1;aspect=fixed;fillColor=#3399FF;" vertex="1" parent="WIyWlLk6GJQsqaUBKTNV-1">
          <mxGeometry x="505" y="100" width="10" height="10" as="geometry" />
        </mxCell>
        <mxCell id="5LAxU9HoS0U59rmS7WPM-37" value="" style="ellipse;whiteSpace=wrap;html=1;aspect=fixed;fillColor=#3399FF;" vertex="1" parent="WIyWlLk6GJQsqaUBKTNV-1">
          <mxGeometry x="440" y="140" width="10" height="10" as="geometry" />
        </mxCell>
        <mxCell id="5LAxU9HoS0U59rmS7WPM-38" value="" style="ellipse;whiteSpace=wrap;html=1;aspect=fixed;fillColor=#3399FF;" vertex="1" parent="WIyWlLk6GJQsqaUBKTNV-1">
          <mxGeometry x="475" y="170" width="10" height="10" as="geometry" />
        </mxCell>
        <mxCell id="5LAxU9HoS0U59rmS7WPM-41" value="" style="endArrow=classic;startArrow=classic;html=1;rounded=0;entryX=0;entryY=1;entryDx=0;entryDy=0;exitX=1;exitY=0;exitDx=0;exitDy=0;endSize=4;startSize=4;" edge="1" parent="WIyWlLk6GJQsqaUBKTNV-1" source="5LAxU9HoS0U59rmS7WPM-31" target="5LAxU9HoS0U59rmS7WPM-36">
          <mxGeometry width="50" height="50" relative="1" as="geometry">
            <mxPoint x="260" y="360" as="sourcePoint" />
            <mxPoint x="310" y="310" as="targetPoint" />
          </mxGeometry>
        </mxCell>
        <mxCell id="5LAxU9HoS0U59rmS7WPM-42" value="" style="endArrow=classic;startArrow=classic;html=1;rounded=0;entryX=0;entryY=0;entryDx=0;entryDy=0;exitX=1;exitY=0.5;exitDx=0;exitDy=0;endSize=4;startSize=4;" edge="1" parent="WIyWlLk6GJQsqaUBKTNV-1" source="5LAxU9HoS0U59rmS7WPM-31" target="5LAxU9HoS0U59rmS7WPM-32">
          <mxGeometry width="50" height="50" relative="1" as="geometry">
            <mxPoint x="494" y="141" as="sourcePoint" />
            <mxPoint x="516" y="119" as="targetPoint" />
          </mxGeometry>
        </mxCell>
        <mxCell id="5LAxU9HoS0U59rmS7WPM-43" value="" style="endArrow=classic;startArrow=classic;html=1;rounded=0;entryX=0.5;entryY=0;entryDx=0;entryDy=0;exitX=0.5;exitY=1;exitDx=0;exitDy=0;endSize=4;startSize=4;" edge="1" parent="WIyWlLk6GJQsqaUBKTNV-1" source="5LAxU9HoS0U59rmS7WPM-31" target="5LAxU9HoS0U59rmS7WPM-38">
          <mxGeometry width="50" height="50" relative="1" as="geometry">
            <mxPoint x="495" y="145" as="sourcePoint" />
            <mxPoint x="536" y="156" as="targetPoint" />
          </mxGeometry>
        </mxCell>
        <mxCell id="5LAxU9HoS0U59rmS7WPM-44" value="" style="endArrow=classic;startArrow=classic;html=1;rounded=0;entryX=1;entryY=0.5;entryDx=0;entryDy=0;exitX=0;exitY=1;exitDx=0;exitDy=0;endSize=4;startSize=4;" edge="1" parent="WIyWlLk6GJQsqaUBKTNV-1" source="5LAxU9HoS0U59rmS7WPM-31" target="5LAxU9HoS0U59rmS7WPM-37">
          <mxGeometry width="50" height="50" relative="1" as="geometry">
            <mxPoint x="490" y="150" as="sourcePoint" />
            <mxPoint x="490" y="180" as="targetPoint" />
          </mxGeometry>
        </mxCell>
        <mxCell id="5LAxU9HoS0U59rmS7WPM-45" value="" style="endArrow=classic;startArrow=classic;html=1;rounded=0;entryX=0;entryY=0;entryDx=0;entryDy=0;exitX=1;exitY=1;exitDx=0;exitDy=0;endSize=4;startSize=4;" edge="1" parent="WIyWlLk6GJQsqaUBKTNV-1" source="5LAxU9HoS0U59rmS7WPM-35" target="5LAxU9HoS0U59rmS7WPM-31">
          <mxGeometry width="50" height="50" relative="1" as="geometry">
            <mxPoint x="475" y="110" as="sourcePoint" />
            <mxPoint x="449" y="116" as="targetPoint" />
          </mxGeometry>
        </mxCell>
        <mxCell id="5LAxU9HoS0U59rmS7WPM-60" value="" style="ellipse;whiteSpace=wrap;html=1;aspect=fixed;fillColor=#FFFF66;" vertex="1" parent="WIyWlLk6GJQsqaUBKTNV-1">
          <mxGeometry x="475" y="300" width="10" height="10" as="geometry" />
        </mxCell>
        <mxCell id="5LAxU9HoS0U59rmS7WPM-61" value="" style="ellipse;whiteSpace=wrap;html=1;aspect=fixed;fillColor=#3399FF;" vertex="1" parent="WIyWlLk6GJQsqaUBKTNV-1">
          <mxGeometry x="525" y="315" width="10" height="10" as="geometry" />
        </mxCell>
        <mxCell id="5LAxU9HoS0U59rmS7WPM-62" value="" style="ellipse;whiteSpace=wrap;html=1;aspect=fixed;fillColor=#3399FF;" vertex="1" parent="WIyWlLk6GJQsqaUBKTNV-1">
          <mxGeometry x="560" y="340" width="10" height="10" as="geometry" />
        </mxCell>
        <mxCell id="5LAxU9HoS0U59rmS7WPM-63" value="" style="ellipse;whiteSpace=wrap;html=1;aspect=fixed;fillColor=#3399FF;" vertex="1" parent="WIyWlLk6GJQsqaUBKTNV-1">
          <mxGeometry x="515" y="360" width="10" height="10" as="geometry" />
        </mxCell>
        <mxCell id="5LAxU9HoS0U59rmS7WPM-64" value="" style="ellipse;whiteSpace=wrap;html=1;aspect=fixed;fillColor=#3399FF;" vertex="1" parent="WIyWlLk6GJQsqaUBKTNV-1">
          <mxGeometry x="450" y="260" width="10" height="10" as="geometry" />
        </mxCell>
        <mxCell id="5LAxU9HoS0U59rmS7WPM-65" value="" style="ellipse;whiteSpace=wrap;html=1;aspect=fixed;fillColor=#3399FF;" vertex="1" parent="WIyWlLk6GJQsqaUBKTNV-1">
          <mxGeometry x="505" y="270" width="10" height="10" as="geometry" />
        </mxCell>
        <mxCell id="5LAxU9HoS0U59rmS7WPM-66" value="" style="ellipse;whiteSpace=wrap;html=1;aspect=fixed;fillColor=#3399FF;" vertex="1" parent="WIyWlLk6GJQsqaUBKTNV-1">
          <mxGeometry x="440" y="310" width="10" height="10" as="geometry" />
        </mxCell>
        <mxCell id="5LAxU9HoS0U59rmS7WPM-67" value="" style="ellipse;whiteSpace=wrap;html=1;aspect=fixed;fillColor=#3399FF;" vertex="1" parent="WIyWlLk6GJQsqaUBKTNV-1">
          <mxGeometry x="475" y="340" width="10" height="10" as="geometry" />
        </mxCell>
        <mxCell id="5LAxU9HoS0U59rmS7WPM-68" value="" style="endArrow=classic;startArrow=classic;html=1;rounded=0;entryX=0;entryY=1;entryDx=0;entryDy=0;exitX=1;exitY=0;exitDx=0;exitDy=0;endSize=4;startSize=4;" edge="1" parent="WIyWlLk6GJQsqaUBKTNV-1" source="5LAxU9HoS0U59rmS7WPM-60" target="5LAxU9HoS0U59rmS7WPM-65">
          <mxGeometry width="50" height="50" relative="1" as="geometry">
            <mxPoint x="260" y="530" as="sourcePoint" />
            <mxPoint x="310" y="480" as="targetPoint" />
          </mxGeometry>
        </mxCell>
        <mxCell id="5LAxU9HoS0U59rmS7WPM-69" value="" style="endArrow=classic;startArrow=classic;html=1;rounded=0;entryX=0;entryY=0;entryDx=0;entryDy=0;exitX=1;exitY=0.5;exitDx=0;exitDy=0;endSize=4;startSize=4;" edge="1" parent="WIyWlLk6GJQsqaUBKTNV-1" source="5LAxU9HoS0U59rmS7WPM-60" target="5LAxU9HoS0U59rmS7WPM-61">
          <mxGeometry width="50" height="50" relative="1" as="geometry">
            <mxPoint x="494" y="311" as="sourcePoint" />
            <mxPoint x="516" y="289" as="targetPoint" />
          </mxGeometry>
        </mxCell>
        <mxCell id="5LAxU9HoS0U59rmS7WPM-70" value="" style="endArrow=classic;startArrow=classic;html=1;rounded=0;entryX=0.5;entryY=0;entryDx=0;entryDy=0;exitX=0.5;exitY=1;exitDx=0;exitDy=0;endSize=4;startSize=4;" edge="1" parent="WIyWlLk6GJQsqaUBKTNV-1" source="5LAxU9HoS0U59rmS7WPM-60" target="5LAxU9HoS0U59rmS7WPM-67">
          <mxGeometry width="50" height="50" relative="1" as="geometry">
            <mxPoint x="495" y="315" as="sourcePoint" />
            <mxPoint x="536" y="326" as="targetPoint" />
          </mxGeometry>
        </mxCell>
        <mxCell id="5LAxU9HoS0U59rmS7WPM-71" value="" style="endArrow=classic;startArrow=classic;html=1;rounded=0;entryX=1;entryY=0.5;entryDx=0;entryDy=0;exitX=0;exitY=1;exitDx=0;exitDy=0;endSize=4;startSize=4;" edge="1" parent="WIyWlLk6GJQsqaUBKTNV-1" source="5LAxU9HoS0U59rmS7WPM-60" target="5LAxU9HoS0U59rmS7WPM-66">
          <mxGeometry width="50" height="50" relative="1" as="geometry">
            <mxPoint x="490" y="320" as="sourcePoint" />
            <mxPoint x="490" y="350" as="targetPoint" />
          </mxGeometry>
        </mxCell>
        <mxCell id="5LAxU9HoS0U59rmS7WPM-72" value="" style="endArrow=classic;startArrow=classic;html=1;rounded=0;entryX=0;entryY=0;entryDx=0;entryDy=0;exitX=1;exitY=1;exitDx=0;exitDy=0;endSize=4;startSize=4;" edge="1" parent="WIyWlLk6GJQsqaUBKTNV-1" source="5LAxU9HoS0U59rmS7WPM-64" target="5LAxU9HoS0U59rmS7WPM-60">
          <mxGeometry width="50" height="50" relative="1" as="geometry">
            <mxPoint x="475" y="280" as="sourcePoint" />
            <mxPoint x="449" y="286" as="targetPoint" />
          </mxGeometry>
        </mxCell>
        <mxCell id="5LAxU9HoS0U59rmS7WPM-73" value="" style="ellipse;whiteSpace=wrap;html=1;aspect=fixed;fillColor=#FFFF66;strokeColor=#FF0080;" vertex="1" parent="WIyWlLk6GJQsqaUBKTNV-1">
          <mxGeometry x="475" y="470" width="10" height="10" as="geometry" />
        </mxCell>
        <mxCell id="5LAxU9HoS0U59rmS7WPM-74" value="" style="ellipse;whiteSpace=wrap;html=1;aspect=fixed;fillColor=#33FF33;strokeColor=#FF00FF;" vertex="1" parent="WIyWlLk6GJQsqaUBKTNV-1">
          <mxGeometry x="525" y="485" width="10" height="10" as="geometry" />
        </mxCell>
        <mxCell id="5LAxU9HoS0U59rmS7WPM-75" value="" style="ellipse;whiteSpace=wrap;html=1;aspect=fixed;fillColor=#3399FF;" vertex="1" parent="WIyWlLk6GJQsqaUBKTNV-1">
          <mxGeometry x="560" y="510" width="10" height="10" as="geometry" />
        </mxCell>
        <mxCell id="5LAxU9HoS0U59rmS7WPM-76" value="" style="ellipse;whiteSpace=wrap;html=1;aspect=fixed;fillColor=#3399FF;" vertex="1" parent="WIyWlLk6GJQsqaUBKTNV-1">
          <mxGeometry x="515" y="530" width="10" height="10" as="geometry" />
        </mxCell>
        <mxCell id="5LAxU9HoS0U59rmS7WPM-77" value="" style="ellipse;whiteSpace=wrap;html=1;aspect=fixed;fillColor=#33FF33;strokeColor=#FF00FF;" vertex="1" parent="WIyWlLk6GJQsqaUBKTNV-1">
          <mxGeometry x="450" y="430" width="10" height="10" as="geometry" />
        </mxCell>
        <mxCell id="5LAxU9HoS0U59rmS7WPM-78" value="" style="ellipse;whiteSpace=wrap;html=1;aspect=fixed;fillColor=#33FF33;strokeColor=#FF00FF;" vertex="1" parent="WIyWlLk6GJQsqaUBKTNV-1">
          <mxGeometry x="505" y="440" width="10" height="10" as="geometry" />
        </mxCell>
        <mxCell id="5LAxU9HoS0U59rmS7WPM-79" value="" style="ellipse;whiteSpace=wrap;html=1;aspect=fixed;fillColor=#33FF33;strokeColor=#FF00FF;" vertex="1" parent="WIyWlLk6GJQsqaUBKTNV-1">
          <mxGeometry x="440" y="480" width="10" height="10" as="geometry" />
        </mxCell>
        <mxCell id="5LAxU9HoS0U59rmS7WPM-80" value="" style="ellipse;whiteSpace=wrap;html=1;aspect=fixed;fillColor=#33FF33;strokeColor=#FF00FF;" vertex="1" parent="WIyWlLk6GJQsqaUBKTNV-1">
          <mxGeometry x="475" y="510" width="10" height="10" as="geometry" />
        </mxCell>
        <mxCell id="5LAxU9HoS0U59rmS7WPM-81" value="" style="endArrow=classic;startArrow=classic;html=1;rounded=0;entryX=0;entryY=1;entryDx=0;entryDy=0;exitX=1;exitY=0;exitDx=0;exitDy=0;endSize=4;startSize=4;" edge="1" parent="WIyWlLk6GJQsqaUBKTNV-1" source="5LAxU9HoS0U59rmS7WPM-73" target="5LAxU9HoS0U59rmS7WPM-78">
          <mxGeometry width="50" height="50" relative="1" as="geometry">
            <mxPoint x="260" y="700" as="sourcePoint" />
            <mxPoint x="310" y="650" as="targetPoint" />
          </mxGeometry>
        </mxCell>
        <mxCell id="5LAxU9HoS0U59rmS7WPM-82" value="" style="endArrow=classic;startArrow=classic;html=1;rounded=0;entryX=0;entryY=0;entryDx=0;entryDy=0;exitX=1;exitY=0.5;exitDx=0;exitDy=0;endSize=4;startSize=4;" edge="1" parent="WIyWlLk6GJQsqaUBKTNV-1" source="5LAxU9HoS0U59rmS7WPM-73" target="5LAxU9HoS0U59rmS7WPM-74">
          <mxGeometry width="50" height="50" relative="1" as="geometry">
            <mxPoint x="494" y="481" as="sourcePoint" />
            <mxPoint x="516" y="459" as="targetPoint" />
          </mxGeometry>
        </mxCell>
        <mxCell id="5LAxU9HoS0U59rmS7WPM-83" value="" style="endArrow=classic;startArrow=classic;html=1;rounded=0;entryX=0.5;entryY=0;entryDx=0;entryDy=0;exitX=0.5;exitY=1;exitDx=0;exitDy=0;endSize=4;startSize=4;" edge="1" parent="WIyWlLk6GJQsqaUBKTNV-1" source="5LAxU9HoS0U59rmS7WPM-73" target="5LAxU9HoS0U59rmS7WPM-80">
          <mxGeometry width="50" height="50" relative="1" as="geometry">
            <mxPoint x="495" y="485" as="sourcePoint" />
            <mxPoint x="536" y="496" as="targetPoint" />
          </mxGeometry>
        </mxCell>
        <mxCell id="5LAxU9HoS0U59rmS7WPM-84" value="" style="endArrow=classic;startArrow=classic;html=1;rounded=0;entryX=1;entryY=0.5;entryDx=0;entryDy=0;exitX=0;exitY=1;exitDx=0;exitDy=0;endSize=4;startSize=4;" edge="1" parent="WIyWlLk6GJQsqaUBKTNV-1" source="5LAxU9HoS0U59rmS7WPM-73" target="5LAxU9HoS0U59rmS7WPM-79">
          <mxGeometry width="50" height="50" relative="1" as="geometry">
            <mxPoint x="490" y="490" as="sourcePoint" />
            <mxPoint x="490" y="520" as="targetPoint" />
          </mxGeometry>
        </mxCell>
        <mxCell id="5LAxU9HoS0U59rmS7WPM-85" value="" style="endArrow=classic;startArrow=classic;html=1;rounded=0;entryX=0;entryY=0;entryDx=0;entryDy=0;exitX=1;exitY=1;exitDx=0;exitDy=0;endSize=4;startSize=4;" edge="1" parent="WIyWlLk6GJQsqaUBKTNV-1" source="5LAxU9HoS0U59rmS7WPM-77" target="5LAxU9HoS0U59rmS7WPM-73">
          <mxGeometry width="50" height="50" relative="1" as="geometry">
            <mxPoint x="475" y="450" as="sourcePoint" />
            <mxPoint x="449" y="456" as="targetPoint" />
          </mxGeometry>
        </mxCell>
        <mxCell id="5LAxU9HoS0U59rmS7WPM-99" value="" style="ellipse;whiteSpace=wrap;html=1;aspect=fixed;fillColor=#FFFF66;strokeColor=#FF0080;" vertex="1" parent="WIyWlLk6GJQsqaUBKTNV-1">
          <mxGeometry x="475" y="640" width="10" height="10" as="geometry" />
        </mxCell>
        <mxCell id="5LAxU9HoS0U59rmS7WPM-100" value="" style="ellipse;whiteSpace=wrap;html=1;aspect=fixed;fillColor=#FFFF66;strokeColor=#FF0080;" vertex="1" parent="WIyWlLk6GJQsqaUBKTNV-1">
          <mxGeometry x="525" y="655" width="10" height="10" as="geometry" />
        </mxCell>
        <mxCell id="5LAxU9HoS0U59rmS7WPM-101" value="" style="ellipse;whiteSpace=wrap;html=1;aspect=fixed;fillColor=#3399FF;strokeColor=#FF00FF;" vertex="1" parent="WIyWlLk6GJQsqaUBKTNV-1">
          <mxGeometry x="560" y="680" width="10" height="10" as="geometry" />
        </mxCell>
        <mxCell id="5LAxU9HoS0U59rmS7WPM-102" value="" style="ellipse;whiteSpace=wrap;html=1;aspect=fixed;fillColor=#3399FF;strokeColor=#FF00FF;" vertex="1" parent="WIyWlLk6GJQsqaUBKTNV-1">
          <mxGeometry x="515" y="700" width="10" height="10" as="geometry" />
        </mxCell>
        <mxCell id="5LAxU9HoS0U59rmS7WPM-103" value="" style="ellipse;whiteSpace=wrap;html=1;aspect=fixed;fillColor=#33FF33;strokeColor=#FF00FF;" vertex="1" parent="WIyWlLk6GJQsqaUBKTNV-1">
          <mxGeometry x="450" y="600" width="10" height="10" as="geometry" />
        </mxCell>
        <mxCell id="5LAxU9HoS0U59rmS7WPM-104" value="" style="ellipse;whiteSpace=wrap;html=1;aspect=fixed;fillColor=#33FF33;strokeColor=#FF00FF;" vertex="1" parent="WIyWlLk6GJQsqaUBKTNV-1">
          <mxGeometry x="505" y="610" width="10" height="10" as="geometry" />
        </mxCell>
        <mxCell id="5LAxU9HoS0U59rmS7WPM-105" value="" style="ellipse;whiteSpace=wrap;html=1;aspect=fixed;fillColor=#33FF33;strokeColor=#FF00FF;" vertex="1" parent="WIyWlLk6GJQsqaUBKTNV-1">
          <mxGeometry x="440" y="650" width="10" height="10" as="geometry" />
        </mxCell>
        <mxCell id="5LAxU9HoS0U59rmS7WPM-106" value="" style="ellipse;whiteSpace=wrap;html=1;aspect=fixed;fillColor=#33FF33;strokeColor=#FF00FF;" vertex="1" parent="WIyWlLk6GJQsqaUBKTNV-1">
          <mxGeometry x="475" y="680" width="10" height="10" as="geometry" />
        </mxCell>
        <mxCell id="5LAxU9HoS0U59rmS7WPM-107" value="" style="endArrow=classic;startArrow=classic;html=1;rounded=0;entryX=0;entryY=1;entryDx=0;entryDy=0;exitX=1;exitY=0;exitDx=0;exitDy=0;endSize=4;startSize=4;" edge="1" parent="WIyWlLk6GJQsqaUBKTNV-1" source="5LAxU9HoS0U59rmS7WPM-99" target="5LAxU9HoS0U59rmS7WPM-104">
          <mxGeometry width="50" height="50" relative="1" as="geometry">
            <mxPoint x="260" y="870" as="sourcePoint" />
            <mxPoint x="310" y="820" as="targetPoint" />
          </mxGeometry>
        </mxCell>
        <mxCell id="5LAxU9HoS0U59rmS7WPM-108" value="" style="endArrow=classic;startArrow=classic;html=1;rounded=0;entryX=0;entryY=0;entryDx=0;entryDy=0;exitX=1;exitY=0.5;exitDx=0;exitDy=0;endSize=4;startSize=4;" edge="1" parent="WIyWlLk6GJQsqaUBKTNV-1" source="5LAxU9HoS0U59rmS7WPM-99" target="5LAxU9HoS0U59rmS7WPM-100">
          <mxGeometry width="50" height="50" relative="1" as="geometry">
            <mxPoint x="494" y="651" as="sourcePoint" />
            <mxPoint x="516" y="629" as="targetPoint" />
          </mxGeometry>
        </mxCell>
        <mxCell id="5LAxU9HoS0U59rmS7WPM-109" value="" style="endArrow=classic;startArrow=classic;html=1;rounded=0;entryX=0.5;entryY=0;entryDx=0;entryDy=0;exitX=0.5;exitY=1;exitDx=0;exitDy=0;endSize=4;startSize=4;" edge="1" parent="WIyWlLk6GJQsqaUBKTNV-1" source="5LAxU9HoS0U59rmS7WPM-99" target="5LAxU9HoS0U59rmS7WPM-106">
          <mxGeometry width="50" height="50" relative="1" as="geometry">
            <mxPoint x="495" y="655" as="sourcePoint" />
            <mxPoint x="536" y="666" as="targetPoint" />
          </mxGeometry>
        </mxCell>
        <mxCell id="5LAxU9HoS0U59rmS7WPM-110" value="" style="endArrow=classic;startArrow=classic;html=1;rounded=0;entryX=1;entryY=0.5;entryDx=0;entryDy=0;exitX=0;exitY=1;exitDx=0;exitDy=0;endSize=4;startSize=4;" edge="1" parent="WIyWlLk6GJQsqaUBKTNV-1" source="5LAxU9HoS0U59rmS7WPM-99" target="5LAxU9HoS0U59rmS7WPM-105">
          <mxGeometry width="50" height="50" relative="1" as="geometry">
            <mxPoint x="490" y="660" as="sourcePoint" />
            <mxPoint x="490" y="690" as="targetPoint" />
          </mxGeometry>
        </mxCell>
        <mxCell id="5LAxU9HoS0U59rmS7WPM-111" value="" style="endArrow=classic;startArrow=classic;html=1;rounded=0;entryX=0;entryY=0;entryDx=0;entryDy=0;exitX=1;exitY=1;exitDx=0;exitDy=0;endSize=4;startSize=4;" edge="1" parent="WIyWlLk6GJQsqaUBKTNV-1" source="5LAxU9HoS0U59rmS7WPM-103" target="5LAxU9HoS0U59rmS7WPM-99">
          <mxGeometry width="50" height="50" relative="1" as="geometry">
            <mxPoint x="475" y="620" as="sourcePoint" />
            <mxPoint x="449" y="626" as="targetPoint" />
          </mxGeometry>
        </mxCell>
        <mxCell id="5LAxU9HoS0U59rmS7WPM-112" value="" style="endArrow=classic;startArrow=classic;html=1;rounded=0;entryX=0;entryY=0;entryDx=0;entryDy=0;exitX=1;exitY=1;exitDx=0;exitDy=0;endSize=4;startSize=4;" edge="1" parent="WIyWlLk6GJQsqaUBKTNV-1" source="5LAxU9HoS0U59rmS7WPM-100" target="5LAxU9HoS0U59rmS7WPM-101">
          <mxGeometry width="50" height="50" relative="1" as="geometry">
            <mxPoint x="495" y="655" as="sourcePoint" />
            <mxPoint x="536" y="666" as="targetPoint" />
          </mxGeometry>
        </mxCell>
        <mxCell id="5LAxU9HoS0U59rmS7WPM-113" value="" style="endArrow=classic;startArrow=classic;html=1;rounded=0;entryX=0.5;entryY=0;entryDx=0;entryDy=0;exitX=0.5;exitY=1;exitDx=0;exitDy=0;endSize=4;startSize=4;" edge="1" parent="WIyWlLk6GJQsqaUBKTNV-1" source="5LAxU9HoS0U59rmS7WPM-100" target="5LAxU9HoS0U59rmS7WPM-102">
          <mxGeometry width="50" height="50" relative="1" as="geometry">
            <mxPoint x="544" y="674" as="sourcePoint" />
            <mxPoint x="571" y="691" as="targetPoint" />
          </mxGeometry>
        </mxCell>
        <mxCell id="5LAxU9HoS0U59rmS7WPM-114" value="" style="ellipse;whiteSpace=wrap;html=1;aspect=fixed;fillColor=#3399FF;fontFamily=STIX;" vertex="1" parent="WIyWlLk6GJQsqaUBKTNV-1">
          <mxGeometry x="300" y="110" width="10" height="10" as="geometry" />
        </mxCell>
        <mxCell id="5LAxU9HoS0U59rmS7WPM-115" value="" style="ellipse;whiteSpace=wrap;html=1;aspect=fixed;fillColor=#FFFF66;fontFamily=STIX;" vertex="1" parent="WIyWlLk6GJQsqaUBKTNV-1">
          <mxGeometry x="300" y="170" width="10" height="10" as="geometry" />
        </mxCell>
        <mxCell id="5LAxU9HoS0U59rmS7WPM-117" value="" style="ellipse;whiteSpace=wrap;html=1;aspect=fixed;fillColor=#33FF33;strokeColor=#000000;fontFamily=STIX;" vertex="1" parent="WIyWlLk6GJQsqaUBKTNV-1">
          <mxGeometry x="300" y="140" width="10" height="10" as="geometry" />
        </mxCell>
        <mxCell id="5LAxU9HoS0U59rmS7WPM-118" value="" style="ellipse;whiteSpace=wrap;html=1;aspect=fixed;fillColor=#FFFF66;strokeColor=#FF0080;fontFamily=STIX;" vertex="1" parent="WIyWlLk6GJQsqaUBKTNV-1">
          <mxGeometry x="360" y="170" width="10" height="10" as="geometry" />
        </mxCell>
        <mxCell id="5LAxU9HoS0U59rmS7WPM-119" value="" style="ellipse;whiteSpace=wrap;html=1;aspect=fixed;fillColor=#3399FF;strokeColor=#FF00FF;fontFamily=STIX;" vertex="1" parent="WIyWlLk6GJQsqaUBKTNV-1">
          <mxGeometry x="330" y="110" width="10" height="10" as="geometry" />
        </mxCell>
        <mxCell id="5LAxU9HoS0U59rmS7WPM-120" value="" style="ellipse;whiteSpace=wrap;html=1;aspect=fixed;fillColor=#33FF33;strokeColor=#FF00FF;fontFamily=STIX;" vertex="1" parent="WIyWlLk6GJQsqaUBKTNV-1">
          <mxGeometry x="330" y="140" width="10" height="10" as="geometry" />
        </mxCell>
        <mxCell id="5LAxU9HoS0U59rmS7WPM-122" value="" style="ellipse;whiteSpace=wrap;html=1;aspect=fixed;fillColor=#3399FF;strokeColor=#FF0080;fontFamily=STIX;" vertex="1" parent="WIyWlLk6GJQsqaUBKTNV-1">
          <mxGeometry x="360" y="110" width="10" height="10" as="geometry" />
        </mxCell>
        <mxCell id="5LAxU9HoS0U59rmS7WPM-123" value="" style="ellipse;whiteSpace=wrap;html=1;aspect=fixed;fillColor=#33FF33;strokeColor=#FF0080;fontFamily=STIX;" vertex="1" parent="WIyWlLk6GJQsqaUBKTNV-1">
          <mxGeometry x="360" y="140" width="10" height="10" as="geometry" />
        </mxCell>
        <mxCell id="5LAxU9HoS0U59rmS7WPM-124" value="" style="ellipse;whiteSpace=wrap;html=1;aspect=fixed;fillColor=#FFFF66;strokeColor=#FF00FF;fontFamily=STIX;" vertex="1" parent="WIyWlLk6GJQsqaUBKTNV-1">
          <mxGeometry x="330" y="170" width="10" height="10" as="geometry" />
        </mxCell>
        <mxCell id="5LAxU9HoS0U59rmS7WPM-125" value="Normal" style="text;html=1;align=center;verticalAlign=middle;resizable=0;points=[];autosize=1;strokeColor=none;fillColor=none;fontFamily=STIX;" vertex="1" parent="WIyWlLk6GJQsqaUBKTNV-1">
          <mxGeometry x="240" y="100" width="60" height="30" as="geometry" />
        </mxCell>
        <mxCell id="5LAxU9HoS0U59rmS7WPM-126" value="Inc." style="text;html=1;align=center;verticalAlign=middle;resizable=0;points=[];autosize=1;strokeColor=none;fillColor=none;fontFamily=STIX;" vertex="1" parent="WIyWlLk6GJQsqaUBKTNV-1">
          <mxGeometry x="250" y="130" width="40" height="30" as="geometry" />
        </mxCell>
        <mxCell id="5LAxU9HoS0U59rmS7WPM-127" value="Sig. Inc." style="text;html=1;align=center;verticalAlign=middle;resizable=0;points=[];autosize=1;strokeColor=none;fillColor=none;fontFamily=STIX;" vertex="1" parent="WIyWlLk6GJQsqaUBKTNV-1">
          <mxGeometry x="240" y="160" width="60" height="30" as="geometry" />
        </mxCell>
        <mxCell id="5LAxU9HoS0U59rmS7WPM-128" value="Nor." style="text;html=1;align=center;verticalAlign=middle;resizable=0;points=[];autosize=1;strokeColor=none;fillColor=none;fontFamily=STIX;" vertex="1" parent="WIyWlLk6GJQsqaUBKTNV-1">
          <mxGeometry x="285" y="75" width="40" height="30" as="geometry" />
        </mxCell>
        <mxCell id="5LAxU9HoS0U59rmS7WPM-129" value="P" style="text;html=1;align=center;verticalAlign=middle;resizable=0;points=[];autosize=1;strokeColor=none;fillColor=none;fontFamily=STIX;" vertex="1" parent="WIyWlLk6GJQsqaUBKTNV-1">
          <mxGeometry x="320" y="75" width="30" height="30" as="geometry" />
        </mxCell>
        <mxCell id="5LAxU9HoS0U59rmS7WPM-130" value="NP" style="text;html=1;align=center;verticalAlign=middle;resizable=0;points=[];autosize=1;strokeColor=none;fillColor=none;fontFamily=STIX;" vertex="1" parent="WIyWlLk6GJQsqaUBKTNV-1">
          <mxGeometry x="345" y="75" width="40" height="30" as="geometry" />
        </mxCell>
        <mxCell id="5LAxU9HoS0U59rmS7WPM-131" value="Nor. = Normal&lt;div&gt;P = Point&lt;/div&gt;&lt;div&gt;NP = Neighbouring Point&lt;/div&gt;&lt;div&gt;Inc. = Increase&lt;/div&gt;&lt;div&gt;Sig. = Significant&lt;/div&gt;" style="text;html=1;align=center;verticalAlign=middle;resizable=0;points=[];autosize=1;strokeColor=default;fillColor=none;fontFamily=STIX;dashed=1;dashPattern=1 4;" vertex="1" parent="WIyWlLk6GJQsqaUBKTNV-1">
          <mxGeometry x="430" y="750" width="150" height="80" as="geometry" />
        </mxCell>
        <mxCell id="5LAxU9HoS0U59rmS7WPM-132" value="" style="rounded=0;whiteSpace=wrap;html=1;fillColor=none;dashed=1;dashPattern=1 4;" vertex="1" parent="WIyWlLk6GJQsqaUBKTNV-1">
          <mxGeometry x="240" y="80" width="150" height="110" as="geometry" />
        </mxCell>
        <mxCell id="5LAxU9HoS0U59rmS7WPM-133" value="" style="rounded=0;whiteSpace=wrap;html=1;fillColor=none;dashed=1;" vertex="1" parent="WIyWlLk6GJQsqaUBKTNV-1">
          <mxGeometry x="430" y="80" width="150" height="130" as="geometry" />
        </mxCell>
        <mxCell id="5LAxU9HoS0U59rmS7WPM-134" value="" style="rounded=0;whiteSpace=wrap;html=1;fillColor=none;dashed=1;" vertex="1" parent="WIyWlLk6GJQsqaUBKTNV-1">
          <mxGeometry x="430" y="250" width="150" height="130" as="geometry" />
        </mxCell>
        <mxCell id="5LAxU9HoS0U59rmS7WPM-135" value="" style="rounded=0;whiteSpace=wrap;html=1;fillColor=none;dashed=1;" vertex="1" parent="WIyWlLk6GJQsqaUBKTNV-1">
          <mxGeometry x="430" y="420" width="150" height="130" as="geometry" />
        </mxCell>
        <mxCell id="5LAxU9HoS0U59rmS7WPM-136" value="" style="rounded=0;whiteSpace=wrap;html=1;fillColor=none;dashed=1;" vertex="1" parent="WIyWlLk6GJQsqaUBKTNV-1">
          <mxGeometry x="430" y="590" width="150" height="130" as="geometry" />
        </mxCell>
      </root>
    </mxGraphModel>
  </diagram>
</mxfile>
